<mxfile host="drawio-plugin" modified="2022-03-23T04:44:21.422Z" agent="5.0 (Macintosh; Intel Mac OS X 11_2_3) AppleWebKit/537.36 (KHTML, like Gecko) Chrome/89.0.4389.114 Safari/537.36" etag="Nwdq4bG2N3ORGRiRzZw0" version="15.5.4" type="embed"><diagram id="49M0BKL2xQ3SYK952rmj" name="第 1 页"><mxGraphModel dx="684" dy="580" grid="0" gridSize="10" guides="1" tooltips="1" connect="1" arrows="1" fold="1" page="1" pageScale="1" pageWidth="4681" pageHeight="3300" math="0" shadow="0"><root><mxCell id="0"/><mxCell id="1" parent="0"/><mxCell id="17" value="" style="rounded=1;whiteSpace=wrap;html=1;dashed=1;strokeWidth=3;strokeColor=#FF3333;" vertex="1" parent="1"><mxGeometry x="372" y="519.5" width="265" height="83" as="geometry"/></mxCell><mxCell id="O12l0vSPh0vt8pcs6gfs-4" value="" style="edgeStyle=orthogonalEdgeStyle;rounded=0;orthogonalLoop=1;jettySize=auto;html=1;" parent="1" source="O12l0vSPh0vt8pcs6gfs-1" target="O12l0vSPh0vt8pcs6gfs-3" edge="1"><mxGeometry relative="1" as="geometry"/></mxCell><mxCell id="O12l0vSPh0vt8pcs6gfs-6" value="" style="edgeStyle=orthogonalEdgeStyle;rounded=0;orthogonalLoop=1;jettySize=auto;html=1;" parent="1" source="O12l0vSPh0vt8pcs6gfs-1" target="O12l0vSPh0vt8pcs6gfs-5" edge="1"><mxGeometry relative="1" as="geometry"><Array as="points"><mxPoint x="330" y="190"/><mxPoint x="440" y="190"/></Array></mxGeometry></mxCell><mxCell id="O12l0vSPh0vt8pcs6gfs-1" value="list.csv" style="rounded=0;whiteSpace=wrap;html=1;fillColor=#d5e8d4;strokeColor=#82b366;" parent="1" vertex="1"><mxGeometry x="290" y="100" width="80" height="50" as="geometry"/></mxCell><mxCell id="O12l0vSPh0vt8pcs6gfs-2" value="&lt;pre style=&quot;background-color: #ffffff ; color: #080808 ; font-family: &amp;#34;.applesystemuifont&amp;#34; ; font-size: 9.8pt&quot;&gt;&lt;br&gt;&lt;/pre&gt;" style="text;whiteSpace=wrap;html=1;" parent="1" vertex="1"><mxGeometry x="380" y="140" width="200" height="10" as="geometry"/></mxCell><mxCell id="O12l0vSPh0vt8pcs6gfs-10" style="edgeStyle=orthogonalEdgeStyle;rounded=0;orthogonalLoop=1;jettySize=auto;html=1;" parent="1" source="O12l0vSPh0vt8pcs6gfs-3" target="O12l0vSPh0vt8pcs6gfs-8" edge="1"><mxGeometry relative="1" as="geometry"/></mxCell><mxCell id="O12l0vSPh0vt8pcs6gfs-3" value="history.csv" style="rounded=0;whiteSpace=wrap;html=1;fillColor=#d5e8d4;strokeColor=#82b366;" parent="1" vertex="1"><mxGeometry x="290" y="230" width="80" height="50" as="geometry"/></mxCell><mxCell id="O12l0vSPh0vt8pcs6gfs-9" style="edgeStyle=orthogonalEdgeStyle;rounded=0;orthogonalLoop=1;jettySize=auto;html=1;" parent="1" source="O12l0vSPh0vt8pcs6gfs-5" target="O12l0vSPh0vt8pcs6gfs-8" edge="1"><mxGeometry relative="1" as="geometry"/></mxCell><mxCell id="O12l0vSPh0vt8pcs6gfs-5" value="store" style="rounded=0;whiteSpace=wrap;html=1;fillColor=#fff2cc;strokeColor=#d6b656;" parent="1" vertex="1"><mxGeometry x="400" y="230" width="80" height="50" as="geometry"/></mxCell><mxCell id="O12l0vSPh0vt8pcs6gfs-7" value="&lt;pre style=&quot;font-style: normal ; font-weight: 400 ; letter-spacing: normal ; text-align: left ; text-indent: 0px ; text-transform: none ; word-spacing: 0px ; background-color: rgb(255 , 255 , 255) ; color: rgb(8 , 8 , 8) ; font-family: &amp;#34;.applesystemuifont&amp;#34; ; font-size: 9.8pt&quot;&gt;&lt;br&gt;&lt;/pre&gt;" style="text;html=1;strokeColor=none;fillColor=none;align=center;verticalAlign=middle;whiteSpace=wrap;rounded=0;" parent="1" vertex="1"><mxGeometry x="410" y="160" width="40" height="20" as="geometry"/></mxCell><mxCell id="O12l0vSPh0vt8pcs6gfs-12" style="edgeStyle=orthogonalEdgeStyle;rounded=0;orthogonalLoop=1;jettySize=auto;html=1;entryX=0.5;entryY=0;entryDx=0;entryDy=0;dashed=1;" parent="1" source="O12l0vSPh0vt8pcs6gfs-8" target="O12l0vSPh0vt8pcs6gfs-11" edge="1"><mxGeometry relative="1" as="geometry"/></mxCell><mxCell id="O12l0vSPh0vt8pcs6gfs-19" value="" style="edgeStyle=orthogonalEdgeStyle;rounded=0;orthogonalLoop=1;jettySize=auto;html=1;entryX=0.5;entryY=0;entryDx=0;entryDy=0;" parent="1" source="O12l0vSPh0vt8pcs6gfs-8" target="O12l0vSPh0vt8pcs6gfs-20" edge="1"><mxGeometry relative="1" as="geometry"><mxPoint x="410" y="460" as="targetPoint"/></mxGeometry></mxCell><mxCell id="O12l0vSPh0vt8pcs6gfs-8" value="&lt;pre style=&quot;background-color: #ffffff ; color: #080808 ; font-family: &amp;quot;.applesystemuifont&amp;quot; ; font-size: 9.8pt&quot;&gt;gen_category.py&lt;/pre&gt;" style="text;whiteSpace=wrap;html=1;fillColor=#f5f5f5;strokeColor=#666666;fontColor=#333333;align=center;" parent="1" vertex="1"><mxGeometry x="330" y="340" width="120" height="60" as="geometry"/></mxCell><mxCell id="O12l0vSPh0vt8pcs6gfs-13" style="edgeStyle=orthogonalEdgeStyle;rounded=0;orthogonalLoop=1;jettySize=auto;html=1;exitX=0.5;exitY=1;exitDx=0;exitDy=0;dashed=1;" parent="1" source="O12l0vSPh0vt8pcs6gfs-11" target="O12l0vSPh0vt8pcs6gfs-8" edge="1"><mxGeometry relative="1" as="geometry"/></mxCell><mxCell id="12" style="edgeStyle=orthogonalEdgeStyle;rounded=0;orthogonalLoop=1;jettySize=auto;html=1;entryX=0;entryY=0.5;entryDx=0;entryDy=0;" edge="1" parent="1" source="O12l0vSPh0vt8pcs6gfs-11" target="11"><mxGeometry relative="1" as="geometry"><Array as="points"><mxPoint x="90" y="351"/><mxPoint x="90" y="438"/></Array></mxGeometry></mxCell><mxCell id="O12l0vSPh0vt8pcs6gfs-11" value="SL finding result" style="rounded=0;whiteSpace=wrap;html=1;dashed=1;fillColor=#f8cecc;strokeColor=#b85450;" parent="1" vertex="1"><mxGeometry x="132" y="331" width="80" height="40" as="geometry"/></mxCell><mxCell id="O12l0vSPh0vt8pcs6gfs-16" value="&lt;pre style=&quot;background-color: #ffffff ; color: #080808 ; font-family: &amp;#34;.applesystemuifont&amp;#34; ; font-size: 9.8pt&quot;&gt;gen_finding_from_store.py&lt;/pre&gt;" style="text;html=1;align=center;verticalAlign=middle;resizable=0;points=[];autosize=1;strokeColor=#666666;fillColor=#f5f5f5;fontColor=#333333;" parent="1" vertex="1"><mxGeometry x="91" y="230" width="180" height="50" as="geometry"/></mxCell><mxCell id="15" style="edgeStyle=orthogonalEdgeStyle;rounded=0;orthogonalLoop=1;jettySize=auto;html=1;entryX=0;entryY=0.5;entryDx=0;entryDy=0;" edge="1" parent="1" source="O12l0vSPh0vt8pcs6gfs-20" target="O12l0vSPh0vt8pcs6gfs-30"><mxGeometry relative="1" as="geometry"/></mxCell><mxCell id="O12l0vSPh0vt8pcs6gfs-20" value="out.xsl" style="rounded=0;whiteSpace=wrap;html=1;fillColor=#d5e8d4;strokeColor=#82b366;" parent="1" vertex="1"><mxGeometry x="350" y="430" width="80" height="50" as="geometry"/></mxCell><mxCell id="O12l0vSPh0vt8pcs6gfs-23" value="&lt;pre style=&quot;text-align: left ; background-color: rgb(255 , 255 , 255) ; color: rgb(8 , 8 , 8) ; font-family: &amp;#34;.applesystemuifont&amp;#34; ; font-size: 9.8pt&quot;&gt;get_history_netease_17pm.py&lt;/pre&gt;" style="text;html=1;align=center;verticalAlign=middle;resizable=0;points=[];autosize=1;strokeColor=#666666;fillColor=#f5f5f5;fontColor=#333333;" parent="1" vertex="1"><mxGeometry x="396" y="100" width="190" height="50" as="geometry"/></mxCell><mxCell id="O12l0vSPh0vt8pcs6gfs-28" value="" style="edgeStyle=orthogonalEdgeStyle;rounded=0;orthogonalLoop=1;jettySize=auto;html=1;entryX=0.5;entryY=0;entryDx=0;entryDy=0;" parent="1" source="O12l0vSPh0vt8pcs6gfs-26" target="O12l0vSPh0vt8pcs6gfs-29" edge="1"><mxGeometry relative="1" as="geometry"><mxPoint x="690" y="530" as="targetPoint"/></mxGeometry></mxCell><mxCell id="O12l0vSPh0vt8pcs6gfs-26" value="&lt;pre style=&quot;background-color: #ffffff ; color: #080808 ; font-family: &amp;quot;.applesystemuifont&amp;quot; ; font-size: 9.8pt&quot;&gt;real_sina_batch.py&lt;/pre&gt;" style="text;whiteSpace=wrap;html=1;fillColor=#f5f5f5;strokeColor=#666666;fontColor=#333333;align=center;" parent="1" vertex="1"><mxGeometry x="501" y="227" width="140" height="60" as="geometry"/></mxCell><mxCell id="6" style="edgeStyle=orthogonalEdgeStyle;rounded=0;orthogonalLoop=1;jettySize=auto;html=1;" edge="1" parent="1" source="O12l0vSPh0vt8pcs6gfs-29" target="O12l0vSPh0vt8pcs6gfs-30"><mxGeometry relative="1" as="geometry"/></mxCell><mxCell id="O12l0vSPh0vt8pcs6gfs-29" value="in.xsl" style="rounded=0;whiteSpace=wrap;html=1;fillColor=#d5e8d4;strokeColor=#82b366;" parent="1" vertex="1"><mxGeometry x="531" y="345" width="80" height="50" as="geometry"/></mxCell><mxCell id="O12l0vSPh0vt8pcs6gfs-34" value="" style="edgeStyle=orthogonalEdgeStyle;rounded=0;orthogonalLoop=1;jettySize=auto;html=1;entryX=0.5;entryY=0;entryDx=0;entryDy=0;" parent="1" source="O12l0vSPh0vt8pcs6gfs-30" target="O12l0vSPh0vt8pcs6gfs-35" edge="1"><mxGeometry relative="1" as="geometry"><mxPoint x="530" y="625" as="targetPoint"/></mxGeometry></mxCell><mxCell id="O12l0vSPh0vt8pcs6gfs-30" value="&lt;pre style=&quot;background-color: #ffffff ; color: #080808 ; font-family: &amp;#34;.applesystemuifont&amp;#34; ; font-size: 9.8pt&quot;&gt;real_update.py&lt;/pre&gt;" style="text;whiteSpace=wrap;html=1;fillColor=#f5f5f5;strokeColor=#666666;fontColor=#333333;align=center;" parent="1" vertex="1"><mxGeometry x="501" y="433" width="140" height="46" as="geometry"/></mxCell><mxCell id="O12l0vSPh0vt8pcs6gfs-35" value="updated&lt;br&gt;out.xsl" style="rounded=0;whiteSpace=wrap;html=1;fillColor=#d5e8d4;strokeColor=#82b366;" parent="1" vertex="1"><mxGeometry x="531" y="536" width="80" height="50" as="geometry"/></mxCell><mxCell id="O12l0vSPh0vt8pcs6gfs-36" value="&lt;div style=&quot;text-align: left&quot;&gt;&lt;span&gt;每天一次&amp;nbsp;&lt;/span&gt;&lt;span style=&quot;background-color: rgb(255, 255, 255); font-family: &amp;quot;.applesystemuifont&amp;quot;; font-size: 9.8pt;&quot;&gt;get_history_netease_17pm&lt;/span&gt;&lt;/div&gt;&lt;span style=&quot;background-color: rgb(255 , 255 , 255)&quot;&gt;&lt;div style=&quot;text-align: left&quot;&gt;&lt;font face=&quot;.applesystemuifont&quot;&gt;&lt;span style=&quot;font-size: 13.0667px&quot;&gt;&lt;br&gt;&lt;/span&gt;&lt;/font&gt;&lt;/div&gt;&lt;font face=&quot;.applesystemuifont&quot;&gt;&lt;div style=&quot;text-align: left&quot;&gt;&lt;span style=&quot;font-size: 9.8pt&quot;&gt;周期性update.sh包含&lt;/span&gt;&lt;/div&gt;&lt;/font&gt;&lt;font face=&quot;.applesystemuifont&quot;&gt;&lt;div style=&quot;text-align: left&quot;&gt;&lt;span style=&quot;font-size: 9.8pt&quot;&gt;1.&lt;/span&gt;&lt;span style=&quot;font-family: &amp;quot;.applesystemuifont&amp;quot; ; font-size: 9.8pt ; text-align: center&quot;&gt;gen_category.py&lt;/span&gt;&lt;/div&gt;&lt;div style=&quot;text-align: left&quot;&gt;&lt;span style=&quot;font-family: &amp;quot;.applesystemuifont&amp;quot; ; font-size: 9.8pt ; text-align: center&quot;&gt;2.&lt;/span&gt;&lt;span style=&quot;font-family: &amp;quot;.applesystemuifont&amp;quot; ; font-size: 9.8pt ; text-align: center&quot;&gt;real_sina_batch.py&lt;/span&gt;&lt;/div&gt;&lt;div style=&quot;text-align: left&quot;&gt;&lt;span style=&quot;font-family: &amp;quot;.applesystemuifont&amp;quot; ; font-size: 9.8pt ; text-align: center&quot;&gt;3.&lt;/span&gt;&lt;span style=&quot;font-family: &amp;quot;.applesystemuifont&amp;quot; ; font-size: 9.8pt ; text-align: center&quot;&gt;real_update.py&lt;/span&gt;&lt;/div&gt;&lt;/font&gt;&lt;/span&gt;" style="text;html=1;align=center;verticalAlign=middle;resizable=0;points=[];autosize=1;strokeColor=none;fontColor=#004C99;" parent="1" vertex="1"><mxGeometry x="53" y="105" width="230" height="90" as="geometry"/></mxCell><mxCell id="5" value="RESULT.MD" style="rounded=0;whiteSpace=wrap;html=1;dashed=1;fillColor=#f8cecc;strokeColor=#b85450;" vertex="1" parent="1"><mxGeometry x="396" y="536" width="88" height="50" as="geometry"/></mxCell><mxCell id="16" style="edgeStyle=orthogonalEdgeStyle;rounded=0;orthogonalLoop=1;jettySize=auto;html=1;" edge="1" parent="1" source="7" target="5"><mxGeometry relative="1" as="geometry"/></mxCell><mxCell id="7" value="&lt;pre style=&quot;background-color: #ffffff ; color: #080808 ; font-family: &amp;#34;.applesystemuifont&amp;#34; ; font-size: 9.8pt&quot;&gt;gen_chart.py&lt;/pre&gt;" style="text;html=1;align=center;verticalAlign=middle;resizable=0;points=[];autosize=1;strokeColor=#666666;fillColor=#f5f5f5;fontColor=#333333;" vertex="1" parent="1"><mxGeometry x="132" y="509" width="78" height="44" as="geometry"/></mxCell><mxCell id="13" style="edgeStyle=orthogonalEdgeStyle;rounded=0;orthogonalLoop=1;jettySize=auto;html=1;" edge="1" parent="1" source="11" target="7"><mxGeometry relative="1" as="geometry"/></mxCell><mxCell id="11" value="reduced.csv" style="rounded=0;whiteSpace=wrap;html=1;fillColor=#d5e8d4;strokeColor=#82b366;" vertex="1" parent="1"><mxGeometry x="132" y="413" width="80" height="50" as="geometry"/></mxCell></root></mxGraphModel></diagram></mxfile>